<?xml version="1.0" encoding="UTF-8"?> <svg xmlns="http://www.w3.org/2000/svg" width="717" height="763" viewBox="0 0 717 763" fill="none"><path fill-rule="evenodd" clip-rule="evenodd" d="M481.453 478.6C471.291 509.115 425.279 504.696 395.372 516.425C371.652 525.727 350.128 539.866 324.67 540.088C297.298 540.325 263.757 539.941 247.778 517.707C231.582 495.17 255.423 463.684 250.16 436.407C245.22 410.804 218.876 393.015 218.686 366.931C218.438 332.871 222.156 292.927 248.961 271.921C275.987 250.743 315.212 259.35 349.061 264.765C380.761 269.836 417.362 275.182 435.413 301.75C452.97 327.59 428.505 363.029 436.381 393.284C444.692 425.208 491.885 447.277 481.453 478.6Z" stroke="url(#paint0_linear_106_4)" stroke-opacity="0.2"></path><path fill-rule="evenodd" clip-rule="evenodd" d="M711.623 595.838C684.219 678.174 559.826 666.145 479.004 697.735C414.903 722.79 356.749 760.904 287.928 761.444C213.934 762.026 123.26 760.914 80.0169 700.869C36.1825 640.004 100.564 555.077 86.2753 481.444C72.8637 412.329 1.60906 364.259 1.03711 293.857C0.290261 201.927 10.252 94.1253 82.6686 37.4903C155.679 -19.6094 261.737 3.70781 353.253 18.3988C438.958 32.157 537.914 46.6663 586.771 118.414C634.288 188.195 568.231 283.792 589.59 365.469C612.127 451.649 739.753 511.318 711.623 595.838Z" stroke="url(#paint1_linear_106_4)" stroke-opacity="0.2"></path><path d="M475.021 689.102C553.419 658.457 674.08 670.124 700.662 590.256C727.95 508.269 604.154 450.39 582.294 366.793C561.577 287.566 625.654 194.832 579.563 127.144C532.174 57.5479 436.187 43.4751 353.053 30.1305C264.284 15.8812 161.408 -6.73549 90.5873 48.6536C20.3428 103.592 10.6783 208.163 11.4014 297.337C11.9552 365.629 81.0712 412.256 94.0794 479.299C107.938 550.725 45.4872 633.107 88.0056 692.147C129.951 750.392 217.904 751.468 289.677 750.904C356.434 750.378 412.843 713.406 475.021 689.102Z" stroke="url(#paint2_linear_106_4)" stroke-opacity="0.2"></path><path d="M471.039 680.468C547.011 650.769 663.94 662.073 689.702 584.673C716.146 505.219 596.181 449.131 574.998 368.118C554.923 291.339 617.019 201.47 572.355 135.874C526.433 68.4297 433.415 54.7932 352.853 41.8623C266.83 28.0547 167.137 6.13854 98.5058 59.8171C30.4332 113.059 21.066 214.398 21.7654 300.817C22.301 366.998 89.2784 412.184 101.883 477.155C115.312 546.373 54.7917 626.21 95.994 683.425C136.641 739.869 221.873 740.911 291.427 740.363C356.118 739.853 410.784 704.022 471.039 680.468Z" stroke="url(#paint3_linear_106_4)" stroke-opacity="0.2"></path><path d="M467.056 671.834C540.605 643.081 653.801 654.023 678.741 579.09C704.343 502.169 588.208 447.872 567.703 369.442C548.27 295.112 608.385 208.108 565.148 144.605C520.692 79.3114 430.644 66.1113 352.654 53.594C269.377 40.2281 172.866 19.0124 106.425 70.9804C40.524 122.526 31.4541 220.634 32.1297 304.297C32.6471 368.367 97.486 412.111 109.687 475.01C122.686 542.021 64.0965 619.313 103.983 674.703C143.331 729.347 225.843 730.354 293.177 729.822C355.803 729.327 408.724 694.638 467.056 671.834Z" stroke="url(#paint4_linear_106_4)" stroke-opacity="0.2"></path><path d="M463.074 663.2C534.198 635.393 643.662 645.972 667.781 573.507C692.54 499.12 580.235 446.613 560.407 370.767C541.616 298.885 599.751 214.746 557.941 153.335C514.952 90.193 427.873 77.4292 352.454 65.3257C271.923 52.4015 178.595 31.8862 114.343 82.1437C50.6146 131.992 41.8421 226.869 42.494 307.776C42.9932 369.737 105.693 412.038 117.491 472.865C130.061 537.669 73.4013 612.416 111.971 665.981C150.022 718.824 229.813 719.797 294.926 719.281C355.488 718.802 406.665 685.254 463.074 663.2Z" stroke="url(#paint5_linear_106_4)" stroke-opacity="0.2"></path><path d="M459.091 654.566C527.791 627.705 633.522 637.922 656.821 567.924C680.737 496.07 572.262 445.353 553.112 372.091C534.963 302.658 591.117 221.384 550.733 162.065C509.211 101.075 425.102 88.7473 352.255 77.0573C274.47 64.5749 184.324 44.7601 122.262 93.307C60.7054 141.459 52.2303 233.104 52.8584 311.256C53.3394 371.106 113.901 411.966 125.296 470.721C137.435 533.317 82.7061 605.519 119.96 657.259C156.712 708.301 233.783 709.24 296.676 708.74C355.173 708.276 404.605 675.87 459.091 654.566Z" stroke="url(#paint6_linear_106_4)" stroke-opacity="0.2"></path><path d="M455.109 645.932C521.384 620.017 623.383 629.871 645.86 562.342C668.933 493.021 564.288 444.094 545.816 373.416C528.309 306.432 582.482 228.022 543.526 170.796C503.471 111.957 422.33 100.065 352.055 88.7892C277.016 76.7484 190.053 57.6342 130.181 104.47C70.7958 150.926 62.618 239.34 63.2225 314.736C63.6853 372.475 122.108 411.893 133.099 468.576C144.809 528.965 92.0107 598.622 127.949 648.537C163.402 697.779 237.752 698.683 298.425 698.2C354.857 697.75 402.545 666.486 455.109 645.932Z" stroke="url(#paint7_linear_106_4)" stroke-opacity="0.2"></path><path d="M451.126 637.299C514.977 612.329 613.243 621.821 634.899 556.759C657.13 489.971 556.315 442.835 538.52 374.741C521.655 310.205 573.848 234.66 536.318 179.526C497.73 122.838 419.559 111.383 351.856 100.521C279.562 88.9218 195.782 70.508 138.099 115.634C80.8865 160.392 73.0061 245.575 73.5867 318.215C74.0314 373.845 130.316 411.82 140.904 466.431C152.184 524.613 101.315 591.726 135.937 639.815C170.092 687.256 241.722 688.125 300.175 687.659C354.542 687.225 400.486 657.102 451.126 637.299Z" stroke="url(#paint8_linear_106_4)" stroke-opacity="0.2"></path><path d="M447.144 628.665C508.57 604.641 603.104 613.77 623.939 551.176C645.327 486.921 548.342 441.576 531.225 376.065C515.002 313.978 565.214 241.297 529.111 188.256C491.99 133.72 416.788 122.701 351.656 112.253C282.109 101.095 201.511 83.3819 146.018 126.797C90.9773 169.859 83.3941 251.811 83.951 321.695C84.3775 375.214 138.523 411.748 148.708 464.287C159.558 520.261 110.62 584.829 143.926 631.093C176.783 676.734 245.692 677.568 301.925 677.118C354.227 676.699 398.426 647.718 447.144 628.665Z" stroke="url(#paint9_linear_106_4)" stroke-opacity="0.2"></path><path d="M443.161 620.031C502.163 596.953 592.964 605.72 612.979 545.594C633.524 483.872 540.369 440.317 523.929 377.39C508.348 317.751 556.58 247.935 521.903 196.987C486.249 144.602 414.016 134.02 351.456 123.984C284.655 113.269 207.239 96.256 153.937 137.961C101.068 179.326 93.7821 258.046 94.3152 325.175C94.7235 376.584 146.731 411.675 156.512 462.142C166.932 515.909 119.925 577.932 151.915 622.371C183.473 666.211 249.661 667.011 303.674 666.577C353.911 666.174 396.367 638.335 443.161 620.031Z" stroke="url(#paint10_linear_106_4)" stroke-opacity="0.2"></path><path d="M439.179 611.397C495.756 589.265 582.825 597.67 602.018 540.011C621.721 480.822 532.396 439.058 516.633 378.714C501.694 321.524 547.946 254.573 514.696 205.717C480.508 155.483 411.245 145.338 351.257 135.716C287.202 125.442 212.968 109.13 161.856 149.124C111.159 188.793 104.17 264.282 104.68 328.655C105.07 377.953 154.938 411.603 164.316 459.998C174.306 511.557 129.23 571.035 159.903 613.649C190.163 655.689 253.631 656.454 305.424 656.036C353.596 655.648 394.307 628.951 439.179 611.397Z" stroke="url(#paint11_linear_106_4)" stroke-opacity="0.2"></path><path d="M435.197 602.763C489.349 581.576 572.685 589.619 591.058 534.428C609.917 477.773 524.423 437.799 509.338 380.039C495.041 325.297 539.312 261.211 507.488 214.447C474.768 166.365 408.474 156.656 351.057 147.448C289.748 137.615 218.697 122.004 169.774 160.287C121.249 198.259 114.558 270.517 115.044 332.134C115.416 379.322 163.146 411.53 172.12 457.853C181.681 507.205 138.534 564.138 167.892 604.927C196.854 645.166 257.601 645.897 307.174 645.496C353.281 645.122 392.248 619.567 435.197 602.763Z" stroke="url(#paint12_linear_106_4)" stroke-opacity="0.2"></path><path d="M431.214 594.129C482.942 573.888 562.546 581.569 580.097 528.845C598.114 474.723 516.45 436.54 502.042 381.363C488.387 329.071 530.677 267.849 500.281 223.177C469.027 177.247 405.703 167.974 350.858 159.179C292.295 149.789 224.426 134.878 177.693 171.451C131.34 207.726 124.946 276.752 125.408 335.614C125.762 380.691 171.353 411.457 179.924 455.708C189.055 502.853 147.839 557.241 175.881 596.205C203.544 634.644 261.571 635.34 308.923 634.955C352.966 634.597 390.188 610.183 431.214 594.129Z" stroke="url(#paint13_linear_106_4)" stroke-opacity="0.2"></path><path d="M427.232 585.496C476.535 566.2 552.407 573.518 569.137 523.263C586.311 471.674 508.477 435.281 494.746 382.688C481.734 332.844 522.043 274.487 493.073 231.908C463.287 188.128 402.931 179.292 350.658 170.911C294.841 161.962 230.155 147.752 185.612 182.614C141.431 217.193 135.334 282.988 135.772 339.094C136.108 382.061 179.56 411.385 187.728 453.564C196.429 498.501 157.144 550.345 183.869 587.483C210.234 624.121 265.54 624.783 310.673 624.414C352.65 624.071 388.129 600.799 427.232 585.496Z" stroke="url(#paint14_linear_106_4)" stroke-opacity="0.2"></path><path d="M423.249 576.862C470.128 558.512 542.267 565.468 558.176 517.68C574.508 468.624 500.504 434.022 487.451 384.013C475.08 336.617 513.409 281.125 485.866 240.638C457.546 199.01 400.16 190.61 350.458 182.643C297.387 174.136 235.884 160.626 193.53 193.777C151.521 226.66 145.722 289.223 146.137 342.573C146.454 383.43 187.768 411.312 195.532 451.419C203.804 494.149 166.449 543.448 191.858 578.761C216.925 613.599 269.51 614.225 312.423 613.873C352.335 613.546 386.069 591.415 423.249 576.862Z" stroke="url(#paint15_linear_106_4)" stroke-opacity="0.2"></path><path d="M419.267 568.228C463.721 550.824 532.128 557.417 547.216 512.097C562.704 465.574 492.53 432.762 480.155 385.337C468.426 340.39 504.775 287.763 478.658 249.368C451.806 209.892 397.389 201.928 350.259 194.375C299.934 186.309 241.613 173.499 201.449 204.941C161.612 236.126 156.11 295.458 156.501 346.053C156.8 384.799 195.976 411.239 203.336 449.275C211.178 489.797 175.754 536.551 199.847 570.039C223.615 603.076 273.48 603.668 314.172 603.332C352.02 603.02 384.01 582.031 419.267 568.228Z" stroke="url(#paint16_linear_106_4)" stroke-opacity="0.2"></path><path d="M415.284 559.594C457.314 543.136 521.988 549.367 536.255 506.514C550.901 462.525 484.557 431.503 472.859 386.662C461.773 344.164 496.14 294.4 471.451 258.099C446.065 220.774 394.617 213.246 350.059 206.106C302.48 198.483 247.342 186.373 209.368 216.104C171.702 245.593 166.498 301.694 166.865 349.533C167.146 386.169 204.183 411.167 211.14 447.13C218.552 485.445 185.058 529.654 207.835 561.317C230.305 592.554 277.449 593.111 315.922 592.792C351.705 592.494 381.95 572.647 415.284 559.594Z" stroke="url(#paint17_linear_106_4)" stroke-opacity="0.2"></path><path d="M411.302 550.96C450.907 535.448 511.849 541.317 525.295 500.932C539.098 459.475 476.584 430.244 465.564 387.986C455.119 347.937 487.506 301.038 464.243 266.829C440.325 231.655 391.846 224.564 349.86 217.838C305.027 210.656 253.071 199.247 217.286 227.267C181.793 255.06 176.886 307.929 177.229 353.012C177.492 387.538 212.39 411.094 218.944 444.986C225.926 481.093 194.363 522.757 215.824 552.595C236.995 582.031 281.419 582.554 317.671 582.251C351.389 581.969 379.89 563.263 411.302 550.96Z" stroke="url(#paint18_linear_106_4)" stroke-opacity="0.2"></path><path d="M407.319 542.326C444.5 527.76 501.709 533.266 514.334 495.349C527.294 456.425 468.611 428.985 458.268 389.311C448.465 351.71 478.872 307.676 457.036 275.559C434.584 242.537 389.075 235.882 349.66 229.57C307.573 222.829 258.8 212.121 225.205 238.431C191.884 264.526 187.274 314.165 187.593 356.492C187.838 388.907 220.598 411.021 226.748 442.841C233.301 476.74 203.668 515.86 223.812 543.873C243.686 571.509 285.389 571.997 319.421 571.71C351.074 571.443 377.831 553.879 407.319 542.326Z" stroke="url(#paint19_linear_106_4)" stroke-opacity="0.2"></path><path d="M403.337 533.692C438.093 520.072 491.57 525.215 503.374 489.766C515.491 453.376 460.638 427.726 450.972 390.635C441.812 355.483 470.238 314.314 449.828 284.289C428.843 253.418 386.304 247.2 349.46 241.301C310.12 235.003 264.529 224.995 233.124 249.594C201.975 273.993 197.662 320.4 197.958 359.972C198.184 390.277 228.805 410.949 234.552 440.696C240.675 472.388 212.972 508.963 231.801 535.151C250.376 560.986 289.359 561.44 321.171 561.169C350.759 560.917 375.771 544.495 403.337 533.692Z" stroke="url(#paint20_linear_106_4)" stroke-opacity="0.2"></path><path d="M399.354 525.059C431.686 512.384 481.43 517.165 492.413 484.183C503.688 450.326 452.665 426.467 443.677 391.96C435.158 359.256 461.604 320.952 442.621 293.02C423.103 264.3 383.532 258.518 349.261 253.033C312.666 247.176 270.258 237.869 241.043 260.758C212.065 283.46 208.05 326.636 208.322 363.452C208.53 391.646 237.013 410.876 242.356 438.552C248.049 468.036 222.277 502.067 239.79 526.429C257.066 550.464 293.328 550.883 322.92 550.628C350.444 550.392 373.712 535.111 399.354 525.059Z" stroke="url(#paint21_linear_106_4)" stroke-opacity="0.2"></path><defs><linearGradient id="paint0_linear_106_4" x1="496.942" y1="473.828" x2="195.611" y2="345.77" gradientUnits="userSpaceOnUse"><stop stop-color="#321809" stop-opacity="0.69"></stop><stop offset="1" stop-color="#F56C1E"></stop></linearGradient><linearGradient id="paint1_linear_106_4" x1="496.942" y1="473.828" x2="195.611" y2="345.77" gradientUnits="userSpaceOnUse"><stop stop-color="#321809" stop-opacity="0.69"></stop><stop offset="1" stop-color="#F56C1E"></stop></linearGradient><linearGradient id="paint2_linear_106_4" x1="496.942" y1="473.828" x2="195.611" y2="345.77" gradientUnits="userSpaceOnUse"><stop stop-color="#321809" stop-opacity="0.69"></stop><stop offset="1" stop-color="#F56C1E"></stop></linearGradient><linearGradient id="paint3_linear_106_4" x1="496.942" y1="473.828" x2="195.611" y2="345.77" gradientUnits="userSpaceOnUse"><stop stop-color="#321809" stop-opacity="0.69"></stop><stop offset="1" stop-color="#F56C1E"></stop></linearGradient><linearGradient id="paint4_linear_106_4" x1="496.942" y1="473.828" x2="195.611" y2="345.77" gradientUnits="userSpaceOnUse"><stop stop-color="#321809" stop-opacity="0.69"></stop><stop offset="1" stop-color="#F56C1E"></stop></linearGradient><linearGradient id="paint5_linear_106_4" x1="496.942" y1="473.828" x2="195.611" y2="345.77" gradientUnits="userSpaceOnUse"><stop stop-color="#321809" stop-opacity="0.69"></stop><stop offset="1" stop-color="#F56C1E"></stop></linearGradient><linearGradient id="paint6_linear_106_4" x1="496.942" y1="473.828" x2="195.611" y2="345.77" gradientUnits="userSpaceOnUse"><stop stop-color="#321809" stop-opacity="0.69"></stop><stop offset="1" stop-color="#F56C1E"></stop></linearGradient><linearGradient id="paint7_linear_106_4" x1="496.942" y1="473.828" x2="195.611" y2="345.77" gradientUnits="userSpaceOnUse"><stop stop-color="#321809" stop-opacity="0.69"></stop><stop offset="1" stop-color="#F56C1E"></stop></linearGradient><linearGradient id="paint8_linear_106_4" x1="496.942" y1="473.828" x2="195.611" y2="345.77" gradientUnits="userSpaceOnUse"><stop stop-color="#321809" stop-opacity="0.69"></stop><stop offset="1" stop-color="#F56C1E"></stop></linearGradient><linearGradient id="paint9_linear_106_4" x1="496.942" y1="473.828" x2="195.611" y2="345.77" gradientUnits="userSpaceOnUse"><stop stop-color="#321809" stop-opacity="0.69"></stop><stop offset="1" stop-color="#F56C1E"></stop></linearGradient><linearGradient id="paint10_linear_106_4" x1="496.942" y1="473.828" x2="195.611" y2="345.77" gradientUnits="userSpaceOnUse"><stop stop-color="#321809" stop-opacity="0.69"></stop><stop offset="1" stop-color="#F56C1E"></stop></linearGradient><linearGradient id="paint11_linear_106_4" x1="496.942" y1="473.828" x2="195.611" y2="345.77" gradientUnits="userSpaceOnUse"><stop stop-color="#321809" stop-opacity="0.69"></stop><stop offset="1" stop-color="#F56C1E"></stop></linearGradient><linearGradient id="paint12_linear_106_4" x1="496.942" y1="473.828" x2="195.611" y2="345.77" gradientUnits="userSpaceOnUse"><stop stop-color="#321809" stop-opacity="0.69"></stop><stop offset="1" stop-color="#F56C1E"></stop></linearGradient><linearGradient id="paint13_linear_106_4" x1="496.942" y1="473.828" x2="195.611" y2="345.77" gradientUnits="userSpaceOnUse"><stop stop-color="#321809" stop-opacity="0.69"></stop><stop offset="1" stop-color="#F56C1E"></stop></linearGradient><linearGradient id="paint14_linear_106_4" x1="496.942" y1="473.828" x2="195.611" y2="345.77" gradientUnits="userSpaceOnUse"><stop stop-color="#321809" stop-opacity="0.69"></stop><stop offset="1" stop-color="#F56C1E"></stop></linearGradient><linearGradient id="paint15_linear_106_4" x1="496.942" y1="473.828" x2="195.611" y2="345.77" gradientUnits="userSpaceOnUse"><stop stop-color="#321809" stop-opacity="0.69"></stop><stop offset="1" stop-color="#F56C1E"></stop></linearGradient><linearGradient id="paint16_linear_106_4" x1="496.942" y1="473.828" x2="195.611" y2="345.77" gradientUnits="userSpaceOnUse"><stop stop-color="#321809" stop-opacity="0.69"></stop><stop offset="1" stop-color="#F56C1E"></stop></linearGradient><linearGradient id="paint17_linear_106_4" x1="496.942" y1="473.828" x2="195.611" y2="345.77" gradientUnits="userSpaceOnUse"><stop stop-color="#321809" stop-opacity="0.69"></stop><stop offset="1" stop-color="#F56C1E"></stop></linearGradient><linearGradient id="paint18_linear_106_4" x1="496.942" y1="473.828" x2="195.611" y2="345.77" gradientUnits="userSpaceOnUse"><stop stop-color="#321809" stop-opacity="0.69"></stop><stop offset="1" stop-color="#F56C1E"></stop></linearGradient><linearGradient id="paint19_linear_106_4" x1="496.942" y1="473.828" x2="195.611" y2="345.77" gradientUnits="userSpaceOnUse"><stop stop-color="#321809" stop-opacity="0.69"></stop><stop offset="1" stop-color="#F56C1E"></stop></linearGradient><linearGradient id="paint20_linear_106_4" x1="496.942" y1="473.828" x2="195.611" y2="345.77" gradientUnits="userSpaceOnUse"><stop stop-color="#321809" stop-opacity="0.69"></stop><stop offset="1" stop-color="#F56C1E"></stop></linearGradient><linearGradient id="paint21_linear_106_4" x1="496.942" y1="473.828" x2="195.611" y2="345.77" gradientUnits="userSpaceOnUse"><stop stop-color="#321809" stop-opacity="0.69"></stop><stop offset="1" stop-color="#F56C1E"></stop></linearGradient></defs></svg> 