<?xml version="1.0" encoding="UTF-8"?> <svg xmlns="http://www.w3.org/2000/svg" width="55" height="87" viewBox="0 0 55 87" fill="none"><g clip-path="url(#clip0_20_426)"><path fill-rule="evenodd" clip-rule="evenodd" d="M7.84494 1.52712V20.7949H6.41327V0.108643H6.41328H7.84494H47.9317H49.3634H49.3635V1.52712H49.3634V20.7949H47.9317V1.52712H7.84494Z" fill="white"></path><path fill-rule="evenodd" clip-rule="evenodd" d="M6.41315 86.9904H49.3634V57.4387H47.9317V85.5719H7.84488V57.4387H6.41321V85.5719H6.41315V86.9904Z" fill="white"></path><path d="M0.0788574 52.7715V25.3943H6.17091C7.37185 25.3943 8.40904 25.5294 9.28244 25.7999C10.1777 26.0702 10.9201 26.4871 11.5097 27.0504C12.0991 27.6137 12.5359 28.3348 12.8198 29.2135C13.1036 30.0698 13.2456 31.0838 13.2456 32.2555C13.2456 33.3821 13.1036 34.3623 12.8198 35.196C12.5578 36.0071 12.1429 36.6493 11.5752 37.1225C11.0293 37.5957 10.3196 37.8999 9.44621 38.0351C10.5161 38.2829 11.3786 38.7111 12.0336 39.3195C12.6888 39.9053 13.1691 40.6714 13.4749 41.6178C13.8024 42.5417 13.9662 43.657 13.9662 44.9638C13.9662 46.1356 13.8352 47.2059 13.5731 48.1748C13.3111 49.1438 12.8962 49.9661 12.3285 50.6421C11.7826 51.3182 11.0729 51.8476 10.1995 52.2307C9.34795 52.5912 8.33261 52.7715 7.1535 52.7715H0.0788574ZM3.77995 50.0337H6.26917C7.92865 50.0337 9.03134 49.6394 9.57722 48.8508C10.1449 48.0396 10.4288 46.744 10.4288 44.9638C10.4288 43.8148 10.276 42.8571 9.97026 42.091C9.6864 41.3023 9.21694 40.7165 8.56188 40.3335C7.92865 39.9279 7.06616 39.7251 5.9744 39.7251H3.77995V50.0337ZM3.77995 36.8184H5.9744C7.02249 36.8184 7.84131 36.6719 8.43087 36.379C9.02042 36.0635 9.4353 35.5677 9.67548 34.8918C9.91567 34.2158 10.0358 33.3371 10.0358 32.2555C10.0358 30.9936 9.85017 30.0811 9.47896 29.5177C9.10777 28.9544 8.52913 28.6051 7.74306 28.47C6.95698 28.3122 5.93072 28.2334 4.66428 28.2334H3.77995V36.8184Z" fill="#F06D20"></path><path d="M24.0349 53.0757C22.2443 53.0757 20.8142 52.7152 19.7443 51.9941C18.6744 51.2731 17.9101 50.2479 17.4515 48.9185C16.993 47.5665 16.7637 45.9893 16.7637 44.1866V33.8103C16.7637 32.0077 16.993 30.4642 17.4515 29.1798C17.9319 27.8729 18.6962 26.8815 19.7443 26.2055C20.8142 25.507 22.2443 25.1577 24.0349 25.1577C25.8254 25.1577 27.2447 25.507 28.2928 26.2055C29.3409 26.904 30.0942 27.8955 30.5527 29.1798C31.0331 30.4642 31.2733 32.0077 31.2733 33.8103V44.2204C31.2733 46.0005 31.0331 47.5552 30.5527 48.8847C30.0942 50.2141 29.3409 51.2506 28.2928 51.9941C27.2447 52.7152 25.8254 53.0757 24.0349 53.0757ZM24.0349 50.0676C25.0175 50.0676 25.7598 49.8649 26.2621 49.4592C26.7642 49.0312 27.1027 48.4452 27.2774 47.7017C27.452 46.9356 27.5395 46.0455 27.5395 45.0315V33.0329C27.5395 32.0189 27.452 31.1514 27.2774 30.4304C27.1027 29.6868 26.7642 29.1235 26.2621 28.7404C25.7598 28.3349 25.0175 28.132 24.0349 28.132C23.0523 28.132 22.299 28.3349 21.7749 28.7404C21.2727 29.1235 20.9342 29.6868 20.7596 30.4304C20.5849 31.1514 20.4976 32.0189 20.4976 33.0329V45.0315C20.4976 46.0455 20.5849 46.9356 20.7596 47.7017C20.9342 48.4452 21.2727 49.0312 21.7749 49.4592C22.299 49.8649 23.0523 50.0676 24.0349 50.0676Z" fill="#F06D20"></path><path d="M34.9109 52.7715V25.3943H38.612V38.3055L44.704 25.3943H48.1431L42.9026 37.4606L48.9947 52.7715H45.3918L40.3151 39.9279L38.612 43.1049V52.7715H34.9109Z" fill="#F06D20"></path><path d="M51.324 52.7715V25.3943H54.9596V52.7715H51.324Z" fill="#F06D20"></path><path d="M17.8791 59.8868C17.7614 59.6417 17.5911 59.4528 17.368 59.3202C17.1449 59.1835 16.8853 59.1152 16.5891 59.1152C16.293 59.1152 16.0253 59.1835 15.786 59.3202C15.5507 59.4528 15.3641 59.6457 15.2262 59.8989C15.0923 60.1481 15.0254 60.4374 15.0254 60.767C15.0254 61.0966 15.0923 61.3859 15.2262 61.6351C15.3641 61.8843 15.5507 62.0772 15.786 62.2139C16.0253 62.3465 16.293 62.4128 16.5891 62.4128C17.0029 62.4128 17.3436 62.2902 17.6114 62.0451C17.8791 61.7999 18.0353 61.4683 18.0799 61.0503H16.3884V60.6042H18.6701V61.0262C18.6376 61.3719 18.5281 61.6894 18.3415 61.9787C18.1549 62.2641 17.9095 62.4912 17.6053 62.66C17.301 62.8247 16.9623 62.9071 16.5891 62.9071C16.1957 62.9071 15.8367 62.8167 15.5122 62.6358C15.1877 62.451 14.9301 62.1958 14.7394 61.8702C14.5528 61.5447 14.4595 61.1769 14.4595 60.767C14.4595 60.3571 14.5528 59.9893 14.7394 59.6638C14.9301 59.3342 15.1877 59.079 15.5122 58.8982C15.8367 58.7133 16.1957 58.6208 16.5891 58.6208C17.0394 58.6208 17.4369 58.7314 17.7817 58.9524C18.1306 59.1735 18.3841 59.4849 18.5423 59.8868H17.8791Z" fill="#C2C2C4"></path><path d="M23.2573 62.8708L22.2473 61.1527H21.578V62.8708H21.0243V58.6689H22.3933C22.7138 58.6689 22.9835 58.7232 23.2026 58.8317C23.4257 58.9402 23.592 59.0869 23.7015 59.2718C23.811 59.4567 23.8658 59.6677 23.8658 59.9048C23.8658 60.1942 23.7806 60.4494 23.6102 60.6704C23.4439 60.8915 23.1924 61.0382 22.8558 61.1105L23.9206 62.8708H23.2573ZM21.578 60.7126H22.3933C22.6935 60.7126 22.9186 60.6403 23.0687 60.4956C23.2188 60.3469 23.2938 60.15 23.2938 59.9048C23.2938 59.6556 23.2188 59.4627 23.0687 59.3261C22.9227 59.1894 22.6976 59.1211 22.3933 59.1211H21.578V60.7126Z" fill="#C2C2C4"></path><path d="M28.2711 62.9132C27.8776 62.9132 27.5186 62.8227 27.1941 62.6419C26.8696 62.457 26.612 62.2018 26.4214 61.8763C26.2348 61.5467 26.1415 61.1769 26.1415 60.767C26.1415 60.3571 26.2348 59.9893 26.4214 59.6638C26.612 59.3342 26.8696 59.079 27.1941 58.8982C27.5186 58.7133 27.8776 58.6208 28.2711 58.6208C28.6686 58.6208 29.0296 58.7133 29.3541 58.8982C29.6787 59.079 29.9342 59.3322 30.1208 59.6578C30.3074 59.9833 30.4007 60.353 30.4007 60.767C30.4007 61.181 30.3074 61.5507 30.1208 61.8763C29.9342 62.2018 29.6787 62.457 29.3541 62.6419C29.0296 62.8227 28.6686 62.9132 28.2711 62.9132ZM28.2711 62.4369C28.5672 62.4369 28.8329 62.3686 29.0682 62.2319C29.3075 62.0953 29.4941 61.9004 29.628 61.6472C29.7659 61.394 29.8348 61.1006 29.8348 60.767C29.8348 60.4294 29.7659 60.136 29.628 59.8868C29.4941 59.6336 29.3095 59.4387 29.0743 59.3021C28.839 59.1654 28.5713 59.0971 28.2711 59.0971C27.9709 59.0971 27.7032 59.1654 27.4679 59.3021C27.2327 59.4387 27.0461 59.6336 26.9081 59.8868C26.7743 60.136 26.7073 60.4294 26.7073 60.767C26.7073 61.1006 26.7743 61.394 26.9081 61.6472C27.0461 61.9004 27.2327 62.0953 27.4679 62.2319C27.7072 62.3686 27.975 62.4369 28.2711 62.4369Z" fill="#C2C2C4"></path><path d="M33.2953 58.6689V61.3275C33.2953 61.7013 33.3865 61.9786 33.5691 62.1595C33.7557 62.3403 34.0133 62.4308 34.3418 62.4308C34.6663 62.4308 34.9199 62.3403 35.1024 62.1595C35.289 61.9786 35.3823 61.7013 35.3823 61.3275V58.6689H35.936V61.3215C35.936 61.6712 35.865 61.9666 35.723 62.2077C35.5811 62.4448 35.3884 62.6217 35.145 62.7382C34.9057 62.8548 34.6359 62.913 34.3357 62.913C34.0356 62.913 33.7638 62.8548 33.5204 62.7382C33.2811 62.6217 33.0904 62.4448 32.9485 62.2077C32.8105 61.9666 32.7416 61.6712 32.7416 61.3215V58.6689H33.2953Z" fill="#C2C2C4"></path><path d="M41.3172 59.8988C41.3172 60.2484 41.1955 60.5398 40.9522 60.7729C40.7128 61.002 40.3457 61.1165 39.8508 61.1165H39.0355V62.8708H38.4818V58.6689H39.8508C40.3295 58.6689 40.6925 58.7835 40.94 59.0126C41.1915 59.2417 41.3172 59.5371 41.3172 59.8988ZM39.8508 60.6644C40.1591 60.6644 40.3863 60.5981 40.5323 60.4654C40.6783 60.3328 40.7514 60.1439 40.7514 59.8988C40.7514 59.3803 40.4512 59.1211 39.8508 59.1211H39.0355V60.6644H39.8508Z" fill="#C2C2C4"></path></g><defs><clipPath id="clip0_20_426"><rect width="55" height="87" fill="white"></rect></clipPath></defs></svg> 